<svg width="36" height="60" viewBox="0 0 36 60" fill="none" xmlns="http://www.w3.org/2000/svg">
<path d="M32.7542 52.1457C32.3876 52.0318 32.1426 51.6659 32.1426 51.282C32.1426 49.4609 30.5725 47.9793 28.6426 47.9793C28.3574 47.9793 28.1123 47.7776 28.0537 47.4985C27.9787 47.1415 27.8989 46.7819 27.8159 46.4092C27.0964 43.1977 26.1475 38.9524 25.9027 25.7873C25.8848 24.8256 26.6126 24.031 27.371 23.4393C28.1471 22.8338 28.6426 21.9193 28.6426 20.8967C28.6426 20.1395 28.3695 19.4448 27.9121 18.8906C27.2087 18.0386 26.5529 16.9352 26.8955 15.8848L28.3653 11.3777C28.6998 10.352 28.1604 9.24576 27.1463 8.87763L20.2144 6.36146C19.8111 6.21507 19.5426 5.83189 19.5426 5.40282V5.08298C19.5426 4.69638 19.856 4.38298 20.2426 4.38298C20.6292 4.38298 20.9426 4.06958 20.9426 3.68298V2.44078C20.9426 2.05418 20.6292 1.74078 20.2426 1.74078H20.2031C19.8383 1.74078 19.5426 1.44504 19.5426 1.08023C19.5426 0.715416 19.2468 0.419678 18.882 0.419678H17.4031C17.0383 0.419678 16.7426 0.715416 16.7426 1.08023C16.7426 1.44504 16.4468 1.74078 16.082 1.74078H16.0426C15.656 1.74078 15.3426 2.05418 15.3426 2.44078V3.68298C15.3426 4.06958 15.656 4.38298 16.0426 4.38298C16.4292 4.38298 16.7426 4.69638 16.7426 5.08298V5.40282C16.7426 5.83189 16.474 6.21507 16.0707 6.36146L9.13889 8.87763C8.12473 9.24576 7.58535 10.352 7.91986 11.3777L9.3897 15.8848C9.73224 16.9352 9.07648 18.0387 8.37318 18.8908C7.91569 19.445 7.64258 20.1398 7.64258 20.8967C7.64258 21.9193 8.13804 22.8339 8.9142 23.4394C9.67256 24.031 10.4004 24.8256 10.3826 25.7872C10.1383 38.9524 9.18947 43.1977 8.46928 46.4092C8.38573 46.7819 8.30618 47.1415 8.23132 47.4985C8.1728 47.7776 7.92775 47.9793 7.64258 47.9793C5.71268 47.9793 4.14258 49.4609 4.14258 51.282C4.14258 51.6659 3.89756 52.0318 3.53095 52.1457C1.85572 52.6661 0.642578 54.1527 0.642578 55.9059C0.642578 58.0917 2.52628 59.8692 4.84258 59.8692H31.4426C33.7589 59.8692 35.6426 58.0917 35.6426 55.9059C35.6426 54.1527 34.4294 52.6661 32.7542 52.1457ZM11.1426 21.5573C10.7632 21.5573 10.4426 21.2548 10.4426 20.8967C10.4426 20.5387 10.7632 20.2362 11.1426 20.2362H25.1426C25.522 20.2362 25.8426 20.5387 25.8426 20.8967C25.8426 21.2548 25.522 21.5573 25.1426 21.5573H11.1426ZM21.97 13.6307C23.3172 13.6307 24.2718 14.9461 23.8539 16.2269C23.588 17.0423 22.8276 17.594 21.97 17.594H14.3152C13.4575 17.594 12.6972 17.0423 12.4312 16.2269C12.0134 14.9461 12.9679 13.6307 14.3152 13.6307H21.97ZM18.1426 10.9885C16.7608 10.9885 16.4226 9.06502 17.7214 8.5936C17.9935 8.49484 18.2917 8.49484 18.5637 8.5936C19.8626 9.06502 19.5243 10.9885 18.1426 10.9885ZM11.2098 46.9561C11.9454 43.6697 12.9148 39.3319 13.1748 26.1795C13.1964 25.0857 14.0868 24.1995 15.1808 24.1995H21.1043C22.1984 24.1995 23.0887 25.0857 23.1103 26.1795C23.3704 39.3319 24.3397 43.6697 25.0754 46.9561C25.1932 47.4829 24.7917 47.9793 24.2519 47.9793H12.0327C11.4932 47.9793 11.0908 47.4823 11.2098 46.9561ZM7.64258 50.6215H28.6426C29.022 50.6215 29.3426 50.924 29.3426 51.282C29.3426 51.6401 29.022 51.9426 28.6426 51.9426H7.64258C7.26318 51.9426 6.94258 51.6401 6.94258 51.282C6.94258 50.924 7.26318 50.6215 7.64258 50.6215ZM31.4426 57.227H4.84258C4.07048 57.227 3.44258 56.6345 3.44258 55.9059C3.44258 55.1773 4.07048 54.5848 4.84258 54.5848H31.4426C32.2147 54.5848 32.8426 55.1773 32.8426 55.9059C32.8426 56.6345 32.2147 57.227 31.4426 57.227Z" fill="url(#paint0_linear)"/>
<defs>
<linearGradient id="paint0_linear" x1="0.642578" y1="0.419678" x2="52.625" y2="31.0235" gradientUnits="userSpaceOnUse">
<stop stop-color="#FFC200"/>
<stop offset="1" stop-color="#FF785E"/>
</linearGradient>
</defs>
</svg>
