<svg width="205" height="190" viewBox="0 0 205 190" fill="none" xmlns="http://www.w3.org/2000/svg">
<path opacity="0.1" d="M82.227 268.745C83.0028 267.931 83.7266 267.043 84.3621 266.054C88.6781 259.336 87.8273 251.036 82.7456 246.478C83.4027 244.053 83.9558 241.659 84.5131 239.182C88.1009 223.244 93.0065 201.537 138.209 130.508C144.733 134.612 153.895 131.95 158.64 124.565C159.724 122.879 160.444 121.085 160.896 119.279C165.743 118.999 170.646 116.235 173.708 111.469L190.931 84.6643L201.264 68.5816L204.709 63.2207L178.671 46.7959L168.337 62.8786L163.603 59.8923L173.937 43.8096L136.063 19.919L125.729 36.0017L120.995 33.0153L131.329 16.9326L105.29 0.507816L101.846 5.86872L91.5122 21.9514L74.2895 48.7559C71.2273 53.5218 70.7742 59.0934 72.5693 63.5632C71.1093 64.7328 69.7733 66.139 68.69 67.825C63.9452 75.2096 65.3879 84.5612 71.9 88.6841C26.0771 159.322 8.30146 172.91 -4.75242 182.877C-6.78202 184.426 -8.73412 185.937 -10.6766 187.552C-16.9931 184.916 -24.9432 187.664 -29.2592 194.382C-29.8948 195.371 -30.4007 196.396 -30.8167 197.437C-38.4002 194.262 -47.9667 197.611 -53.1507 205.679C-58.8497 214.549 -57.1145 225.78 -49.2817 230.721L59.6054 299.406C67.4382 304.347 78.4427 301.152 84.1417 292.283C89.3258 284.214 88.3397 274.209 82.227 268.745ZM-19.7908 200.354C-18.8573 198.902 -16.9844 198.358 -15.7014 199.167L74.2488 255.907C75.5318 256.717 75.8271 258.628 74.8936 260.081C73.9602 261.534 72.0872 262.077 70.8042 261.268L-19.146 204.528C-20.4289 203.719 -20.7243 201.807 -19.7908 200.354ZM107.87 17.2023L114.971 21.6818L104.637 37.7645L128.309 52.6961L138.642 36.6134L157.579 48.5587L147.245 64.6414L170.917 79.5731L181.25 63.4904L188.352 67.9699L181.462 78.6917L164.24 105.496C163.306 106.949 161.433 107.493 160.15 106.683L84.4027 58.9022C83.1198 58.0929 82.8244 56.1814 83.7579 54.7286L100.981 27.9241L107.87 17.2023ZM78.1585 73.7976C79.0919 72.3448 80.9649 71.801 82.2479 72.6103L148.527 114.419C149.81 115.228 150.105 117.14 149.172 118.593C148.238 120.045 146.365 120.589 145.082 119.78L78.8033 77.9712C77.5203 77.1619 77.225 75.2504 78.1585 73.7976ZM81.3708 94.6582L128.737 124.536C82.1432 197.751 76.9457 220.818 73.1291 237.764C72.9656 238.49 72.8075 239.14 72.6494 239.831L-0.323857 193.8C0.237299 193.366 0.768754 192.948 1.36306 192.494C15.2446 181.897 34.1382 167.469 81.3708 94.6582ZM66.4945 288.684L-42.3926 219.999C-45.0035 218.352 -45.5819 214.608 -43.6823 211.652C-41.7826 208.695 -38.1144 207.63 -35.5035 209.277L73.3836 277.963C75.9945 279.61 76.5729 283.353 74.6733 286.31C72.7736 289.266 69.1054 290.331 66.4945 288.684Z" fill="#1070B1"/>
</svg>
