<svg width="42" height="61" viewBox="0 0 42 61" fill="none" xmlns="http://www.w3.org/2000/svg">
<path d="M38.301 52.144C37.9228 52.0156 37.6672 51.6378 37.6672 51.2384C37.6672 49.3545 36.1338 47.8218 34.2491 47.8218C33.5185 47.8218 32.9319 47.2143 32.9856 46.4856C33.5078 39.3946 35.9746 33.3847 38.0433 28.4311C38.0925 28.3132 38.1529 28.2013 38.2225 28.0942C40.0312 25.3122 41.0853 21.9964 41.0853 18.4387C41.0853 8.64246 33.1116 0.672119 23.3113 0.672119C22.5562 0.672119 21.944 1.28425 21.944 2.03935V2.38044C21.944 3.32392 21.1792 4.08876 20.2357 4.08876H17.1587C14.218 4.08876 11.7582 6.16323 11.1541 8.92393C11.0351 9.46797 10.7793 9.98317 10.3119 10.286C9.91098 10.5457 9.43553 10.8374 9.00936 11.0983C5.44909 13.2816 0.0683594 16.5807 0.0683594 21.172C0.0683594 23.9573 1.93208 26.3115 4.47757 27.0638C5.24257 27.2899 5.90447 27.8174 6.39047 28.45C7.13976 29.4253 8.31623 30.0552 9.63897 30.0552C11.2196 30.0552 12.5941 29.1569 13.2787 27.8444C13.5716 27.283 13.9731 26.7567 14.5552 26.5074L16.2839 25.7669C16.6815 25.5966 17.1402 25.6591 17.5211 25.8642C18.0434 26.1455 18.4064 26.6944 18.2489 27.2664C17.3735 30.4454 14.461 32.7885 11.0062 32.7885C10.2023 32.7885 9.57187 33.4789 9.64468 34.2795L10.7642 46.5895C10.8244 47.2512 10.3034 47.8218 9.63897 47.8218C7.75424 47.8218 6.2209 49.3545 6.2209 51.2384C6.2209 51.6378 5.96528 52.0156 5.58712 52.144C3.96999 52.6931 2.80282 54.2216 2.80282 56.0217C2.80282 58.2828 4.64243 60.1217 6.90451 60.1217H36.9836C39.2457 60.1217 41.0853 58.2828 41.0853 56.0217C41.0853 54.2216 39.9181 52.6931 38.301 52.144ZM12.6654 37.3012C12.5691 36.2431 13.3278 35.314 14.3324 34.9684C17.5116 33.8744 19.9849 31.2572 20.8847 27.9931C21.1237 27.1264 21.8123 26.441 22.6365 26.0817C23.2806 25.8008 23.8837 25.3978 24.4098 24.8715C25.507 23.7748 26.112 22.3159 26.112 20.7647C26.112 19.6753 25.814 18.6314 25.2561 17.7265C24.8601 17.084 23.9774 17.0902 23.4436 17.6237C22.9096 18.1575 22.949 19.0251 23.2003 19.7372C23.5823 20.8196 23.341 22.0745 22.4766 22.9391C21.2768 24.1376 19.3258 24.1376 18.1261 22.9391C17.7305 22.5437 17.1341 22.4288 16.62 22.6491L11.8347 24.699C11.3321 24.9143 11.0062 25.4085 11.0062 25.9553C11.0062 26.709 10.393 27.3219 9.63897 27.3219C9.26514 27.3219 8.92771 27.1709 8.68235 26.9267C8.24866 26.4951 8.56784 25.8285 9.04572 25.4464L9.42477 25.1433C10.0145 24.6717 10.1101 23.8113 9.6382 23.2218C9.16663 22.6327 8.30688 22.5372 7.71759 23.0085L6.45603 24.0176C6.03349 24.3555 5.48058 24.5349 4.97664 24.338C3.70681 23.8416 2.80282 22.6152 2.80282 21.172C2.80282 18.1107 7.58334 15.1792 10.4395 13.4285C12.7064 12.0386 13.7407 11.4045 13.7407 10.2387C13.7407 8.35478 15.274 6.82207 17.1587 6.82207H20.9191C21.4851 6.82207 21.944 7.28098 21.944 7.84707C21.944 8.41315 22.4029 8.87206 22.969 8.87206H23.3113C24.0664 8.87206 24.6785 8.25993 24.6785 7.50483V5.65614C24.6785 4.48039 25.694 3.54702 26.837 3.82251C33.435 5.41273 38.3508 11.3624 38.3508 18.4387C38.3508 26.268 32.3323 32.7185 24.6769 33.4104C23.9252 33.4784 23.3113 34.0837 23.3113 34.8385C23.3113 35.5933 23.924 36.2107 24.6766 36.1533C25.6963 36.0755 26.6923 35.9113 27.6571 35.668C29.5336 35.1948 31.8905 37.1568 31.4262 39.0356C30.8934 41.1921 30.485 43.4752 30.2846 45.8926C30.1955 46.9667 29.3168 47.8218 28.2389 47.8218H15.4487C14.4144 47.8218 13.5506 47.0331 13.4569 46.003L12.6654 37.3012ZM9.63897 50.5551H34.2491C34.6196 50.5551 34.9327 50.868 34.9327 51.2384C34.9327 51.6088 34.6196 51.9217 34.2491 51.9217H9.63897C9.26845 51.9217 8.95536 51.6088 8.95536 51.2384C8.95536 50.868 9.26845 50.5551 9.63897 50.5551ZM36.9836 57.3884H6.90451C6.15048 57.3884 5.53728 56.7754 5.53728 56.0217C5.53728 55.268 6.15048 54.655 6.90451 54.655H36.9836C37.7376 54.655 38.3508 55.268 38.3508 56.0217C38.3508 56.7754 37.7376 57.3884 36.9836 57.3884ZM17.3344 9.08622C17.9816 8.69807 18.8209 8.90789 19.2093 9.55495C19.5979 10.2023 19.388 11.0422 18.7404 11.4306L17.6667 12.0745C17.0195 12.4627 16.1802 12.2529 15.7918 11.6058C15.4032 10.9584 15.6131 10.1186 16.2607 9.7302L17.3344 9.08622ZM4.43781 20.0346C5.00395 19.6573 5.76872 19.8103 6.14625 20.3762L6.2956 20.6001C6.67337 21.1665 6.52033 21.9318 5.95382 22.3093C5.38768 22.6866 4.62291 22.5337 4.24538 21.9677L4.09603 21.7438C3.71826 21.1775 3.8713 20.4121 4.43781 20.0346Z" fill="url(#paint0_linear)"/>
<defs>
<linearGradient id="paint0_linear" x1="0.0683594" y1="0.672119" x2="55.6459" y2="39.0176" gradientUnits="userSpaceOnUse">
<stop stop-color="#FFC200"/>
<stop offset="1" stop-color="#FF785E"/>
</linearGradient>
</defs>
</svg>
