<svg width="165" height="160" viewBox="0 0 165 160" fill="none" xmlns="http://www.w3.org/2000/svg">
<path opacity="0.1" d="M77.1383 267.156C77.975 266.289 78.7386 265.336 79.3816 264.264C84.1853 256.258 81.1908 245.678 72.7063 240.681L70.3397 239.287C71.0029 237.272 71.6218 235.255 72.2653 233.134C76.6984 218.582 82.5722 199.316 116.606 140.281C124.359 142.902 133.017 140.161 137.175 133.232C140.619 127.491 139.997 120.455 136.274 115.074C144.318 110.372 155.618 102.493 161.568 92.5761C167.161 83.2542 164.157 65.9086 160.678 45.8272C158.297 32.0672 155.033 13.2245 158.152 8.02637L145.842 0.775463C142.723 5.97365 124.457 12.1345 111.119 16.635C91.6524 23.2008 74.8379 28.8724 69.2448 38.1943C63.2945 48.1115 61.7074 61.711 61.3813 70.9596C54.832 70.2893 48.296 73.1092 44.8513 78.8505C40.694 85.7794 42.4003 94.6256 48.4283 100.122C12.3448 157.95 -1.93039 172.266 -12.7153 183.078C-14.2851 184.653 -15.7811 186.153 -17.2506 187.693L-19.6171 186.299C-28.1016 181.301 -38.9125 183.749 -43.7163 191.755C-44.3593 192.827 -44.8397 193.947 -45.2087 195.09C-54.8558 191.085 -66.0557 194.279 -71.3003 203.02C-77.0659 212.629 -73.4732 225.322 -63.2899 231.32L53.6531 300.204C63.8363 306.202 76.8065 303.266 82.5721 293.656C87.8167 284.915 85.2973 273.641 77.1383 267.156ZM58.4962 90.8181C56.8282 89.8356 56.2168 87.6754 57.1611 86.1014C58.1055 84.5274 60.313 84.0276 61.981 85.0101L123.53 121.265C125.198 122.247 125.809 124.407 124.865 125.981C123.921 127.555 121.713 128.055 120.045 127.073L58.4962 90.8181ZM108.492 32.2393L107.414 52.4038L121.542 53.6945L122.95 27.322C130.321 24.7973 137.138 22.3278 142.854 19.6383C143.303 27.7553 144.957 37.2859 146.728 47.5302C149.113 61.2843 152.377 80.127 149.258 85.3252C143.535 94.8649 130.167 102.602 123.985 105.811L75.4655 77.2316C75.3573 70.3173 75.8308 54.9849 81.5546 45.4452C84.0967 41.2082 96.6976 36.3325 108.492 32.2393ZM-2.34091 192.804C8.86334 181.572 23.7024 166.684 60.5159 107.729L104.086 133.394C69.4025 193.603 63.2893 213.635 58.6849 228.751C58.356 229.826 58.0404 230.831 57.7222 231.855L-4.63304 195.125C-3.87788 194.359 -3.13933 193.607 -2.34091 192.804ZM-26.5867 197.915L65.7367 252.297C67.4047 253.279 68.0162 255.44 67.0718 257.014C66.1274 258.587 63.9199 259.087 62.2519 258.105L-30.0715 203.723C-31.7394 202.741 -32.3509 200.58 -31.4065 199.006C-30.4621 197.432 -28.2547 196.933 -26.5867 197.915ZM60.6226 288.588L-56.3204 219.704C-59.7148 217.705 -60.9124 213.474 -58.9905 210.271C-57.0686 207.068 -52.7452 206.089 -49.3508 208.088L67.5922 276.972C70.9866 278.971 72.1841 283.202 70.2623 286.405C68.3404 289.608 64.017 290.587 60.6226 288.588Z" fill="#1070B1"/>
</svg>
