<svg width="36" height="61" viewBox="0 0 36 61" fill="none" xmlns="http://www.w3.org/2000/svg">
<path d="M32.6741 52.4877C32.3075 52.3739 32.0625 52.008 32.0625 51.6241C32.0625 49.803 30.4924 48.3213 28.5625 48.3213C28.2477 48.3213 27.9751 48.1033 27.9011 47.7973C27.8454 47.5673 27.7874 47.3352 27.7274 47.0967C27.036 44.336 26.1312 40.7192 25.8504 28.7628C25.8278 27.8028 26.5501 27.0051 27.3045 26.4109C28.0726 25.8058 28.5625 24.897 28.5625 23.881C28.5625 23.324 28.4144 22.8007 28.1539 22.342C27.5791 21.33 27.0734 20.0538 27.5281 18.9824C28.0958 17.6446 28.5625 16.0995 28.5625 14.6333C28.5625 12.5129 26.3085 9.89515 23.6989 6.86454C22.4012 5.35715 20.7555 3.44572 19.9506 2.0588C19.5625 1.39005 18.8357 0.761719 18.0625 0.761719C17.2893 0.761719 16.5625 1.39005 16.1744 2.0588C15.3695 3.44572 13.7238 5.35715 12.4261 6.86454C9.8165 9.89515 7.5625 12.5129 7.5625 14.6333C7.5625 16.0995 8.02916 17.6446 8.59688 18.9824C9.05158 20.0538 8.54593 21.33 7.97108 22.342C7.71059 22.8007 7.5625 23.324 7.5625 23.881C7.5625 24.897 8.05242 25.8058 8.82052 26.4109C9.57488 27.0051 10.2972 27.8028 10.2746 28.7628C9.99384 40.7192 9.08897 44.336 8.3976 47.0967C8.33799 47.3352 8.27996 47.5673 8.22415 47.7974C8.14993 48.1033 7.87733 48.3213 7.5625 48.3213C5.6326 48.3213 4.0625 49.803 4.0625 51.6241C4.0625 52.008 3.81748 52.3739 3.45087 52.4877C1.77564 53.0082 0.5625 54.4948 0.5625 56.2479C0.5625 58.4337 2.4462 60.2112 4.7625 60.2112H31.3625C33.6788 60.2112 35.5625 58.4337 35.5625 56.2479C35.5625 54.4948 34.3494 53.0082 32.6741 52.4877ZM11.0625 24.5415C10.6831 24.5415 10.3625 24.239 10.3625 23.881C10.3625 23.523 10.6831 23.2204 11.0625 23.2204H25.0625C25.4419 23.2204 25.7625 23.523 25.7625 23.881C25.7625 24.239 25.4419 24.5415 25.0625 24.5415H11.0625ZM12.0413 11.6124C12.7425 10.6998 14.1447 10.8544 14.6835 11.8714L14.792 12.0761C15.138 12.729 15.9361 12.9947 16.6044 12.6794C17.318 12.3427 17.6058 11.4781 17.2363 10.7808L16.1052 8.64639C15.7351 7.94803 15.8901 7.02767 16.3928 6.41776C17.2598 5.36579 18.9209 5.43694 19.7893 6.48778C20.3333 7.14602 20.9202 7.82767 21.5261 8.53177C23.3139 10.6072 25.7625 13.4509 25.7625 14.6333C25.7625 16.3231 24.8731 18.2881 24.1417 19.6187C23.8086 20.2246 23.1601 20.5782 22.4687 20.5782H13.6563C12.9649 20.5782 12.3164 20.2246 11.9833 19.6187C11.2519 18.2881 10.3625 16.3231 10.3625 14.6333C10.3625 13.9887 11.0899 12.8506 12.0413 11.6124ZM11.122 47.7044C11.8347 44.858 12.7659 41.1327 13.0652 29.1542C13.0924 28.0639 13.9811 27.1837 15.0718 27.1837H21.0532C22.1439 27.1837 23.0326 28.0639 23.0598 29.1542C23.3591 41.1327 24.2903 44.8586 25.003 47.7044C25.0812 48.0181 24.8423 48.3213 24.519 48.3213H11.606C11.2827 48.3213 11.044 48.0182 11.122 47.7044ZM7.5625 50.9635H28.5625C28.9419 50.9635 29.2625 51.2661 29.2625 51.6241C29.2625 51.9821 28.9419 52.2846 28.5625 52.2846H7.5625C7.1831 52.2846 6.8625 51.9821 6.8625 51.6241C6.8625 51.2661 7.1831 50.9635 7.5625 50.9635ZM31.3625 57.569H4.7625C3.9904 57.569 3.3625 56.9765 3.3625 56.2479C3.3625 55.5194 3.9904 54.9268 4.7625 54.9268H31.3625C32.1346 54.9268 32.7625 55.5194 32.7625 56.2479C32.7625 56.9765 32.1346 57.569 31.3625 57.569Z" fill="url(#paint0_linear)"/>
<defs>
<linearGradient id="paint0_linear" x1="0.5625" y1="0.761719" x2="52.5449" y2="31.3656" gradientUnits="userSpaceOnUse">
<stop stop-color="#FFC200"/>
<stop offset="1" stop-color="#FF785E"/>
</linearGradient>
</defs>
</svg>
