<svg width="160" height="193" viewBox="0 0 160 193" fill="none" xmlns="http://www.w3.org/2000/svg">
<path opacity="0.1" d="M46.2108 246.83C47.0095 245.985 47.7522 245.063 48.4002 244.037C53.2425 236.365 51.545 226.63 44.6163 222.337L42.8547 221.246C43.8629 218.839 44.8187 216.428 45.8232 213.884C52.0229 198.134 60.3093 177.113 98.1145 115.688C104.63 117.855 112.416 114.919 116.626 108.249C120.358 102.336 120.169 95.2238 116.732 90.2953L159.433 56.2907L152.609 46.4489L145.712 51.9418C142.126 46.3132 135.76 40.596 129.402 35.7539C131.31 34.2696 133.021 32.4228 134.404 30.2328C140.215 21.0251 138.179 9.34644 129.863 4.19352C121.547 -0.959393 110.058 2.33816 104.246 11.5459C102.864 13.7359 101.937 16.0686 101.426 18.4187C94.2504 14.8706 86.2743 11.705 79.5969 10.9739L81.5628 2.42562L69.6447 0.653494L57.478 53.5786C51.5011 52.6737 44.9648 55.6184 41.2326 61.5315C37.0227 68.2015 37.766 76.4233 42.5848 81.2789C3.39482 141.846 -12.0539 158.429 -23.6343 170.845C-25.5057 172.851 -27.2732 174.76 -29.0154 176.711L-30.7771 175.62C-37.7057 171.327 -47.2821 174.075 -52.1243 181.747C-52.7724 182.774 -53.2838 183.839 -53.7005 184.92C-61.7209 181.603 -71.6976 185.063 -76.9842 193.439C-82.7959 202.647 -80.7594 214.326 -72.4435 219.478L23.0548 278.654C31.3707 283.807 42.8598 280.509 48.6715 271.301C53.958 262.925 52.7313 252.523 46.2108 246.83ZM52.0418 72.1004C50.6797 71.2563 50.3331 69.2687 51.2851 67.7605C52.237 66.2523 54.1924 65.691 55.5545 66.5351L105.817 97.6799C107.179 98.524 107.525 100.512 106.574 102.02C105.622 103.528 103.666 104.089 102.304 103.245L52.0418 72.1004ZM68.5309 59.0921L73.2058 38.7632L123.292 69.799L106.891 82.8618L68.5309 59.0921ZM114.299 17.7749C116.236 14.7056 120.066 13.6065 122.838 15.3241C125.61 17.0417 126.288 20.9346 124.351 24.0039C122.414 27.0731 118.584 28.1723 115.812 26.4547C113.04 24.737 112.362 20.8441 114.299 17.7749ZM108.787 37.5852C124.318 47.209 132.994 55.8519 135.649 59.9591L134.228 61.0915L76.3207 25.2095L76.7264 23.448C81.6156 24.0156 93.2559 27.9615 108.787 37.5852ZM-15.2497 179.245C-3.31742 166.444 12.6107 149.345 52.4302 87.8248L87.8651 109.782C49.468 172.184 40.9234 193.858 34.5301 210.091C33.8682 211.771 33.2458 213.344 32.6137 214.9L-18.7769 183.056C-17.6397 181.813 -16.4853 180.566 -15.2497 179.245ZM-37.8024 186.75L37.591 233.468C38.9531 234.312 39.2997 236.299 38.3478 237.808C37.3959 239.316 35.4404 239.877 34.0783 239.033L-41.3151 192.316C-42.6772 191.472 -43.0238 189.484 -42.0718 187.976C-41.1199 186.468 -39.1645 185.906 -37.8024 186.75ZM30.0801 267.523L-65.4182 208.348C-68.1901 206.63 -68.869 202.737 -66.9317 199.668C-64.9945 196.599 -61.1648 195.5 -58.3929 197.217L37.1055 256.393C39.8774 258.11 40.5562 262.003 38.619 265.072C36.6818 268.142 32.8521 269.241 30.0801 267.523Z" fill="#1070B1"/>
</svg>
