<svg width="210" height="194" viewBox="0 0 210 194" fill="none" xmlns="http://www.w3.org/2000/svg">
<path opacity="0.1" d="M73.3876 268.24C74.3203 267.355 75.1969 266.381 75.9769 265.287C81.8054 257.111 80.6081 246.303 73.3079 241.194L68.1261 237.567C93.2656 204.673 123.882 183.738 148.826 166.758C164.789 159.62 179.472 147.941 190.691 132.203C220.998 89.6878 214.772 33.4827 176.812 6.91709L171.517 3.21096L160.946 18.039L142.411 5.06754C129.86 -3.71601 111.778 0.014221 101.037 13.1843C98.5729 13.4781 93.4342 13.4379 89.1602 13.3984C68.6157 13.2227 37.5677 12.9552 23.3634 32.8812C13.3448 46.9352 14.887 65.2882 26.4866 74.9218C23.6897 83.3882 26.0159 92.524 32.9506 97.3771C40.4467 102.623 50.9128 101.186 58.1589 94.518L75.2844 97.3239C76.074 100.086 77.2893 102.59 78.8114 104.82C65.5493 119.449 44.5413 123.269 29.7901 112.946L23.9913 108.888L-17.2223 177.837L-22.0149 174.483C-29.3151 169.374 -39.9961 171.87 -45.8245 180.046C-46.6046 181.14 -47.2375 182.284 -47.7678 183.451C-56.3307 179.356 -67.4989 182.613 -73.8622 191.54C-80.8576 201.353 -79.4212 214.32 -70.6594 220.452L45.8463 301.987C54.6081 308.119 67.4224 305.125 74.4178 295.312C80.7811 286.385 80.1452 274.867 73.3876 268.24ZM27.4275 128.375C47.1092 137.828 72.319 131.632 88.6417 113.233C93.779 115.663 99.8647 116.402 106.2 114.919C113.843 113.134 120.7 108.442 125.499 101.71C130.298 94.9781 132.471 87.0084 131.611 79.2726L118.144 82.4188C119.079 90.8738 113.045 99.3377 104.691 101.292C96.3355 103.242 88.7785 97.9529 87.8396 89.4991L87.3282 84.8828L53.7191 79.3779L50.9307 83.2896C48.5989 86.5607 44.3274 87.5586 41.4068 85.5147C38.6213 83.5653 38.0867 79.555 40.064 76.347L54.0962 74.6678L54.0814 60.7753L35.1053 63.0485C29.2511 57.5647 28.5788 47.835 33.9548 40.2934C43.4258 27.0075 71.0116 27.2435 87.4906 27.3877C100.571 27.5005 106.539 27.5521 110.145 22.4927C115.974 14.3165 126.655 11.8211 133.955 16.93L152.49 29.9015L146.148 38.7983L156.739 46.2106L173.462 22.7526C200.969 46.5104 204.32 90.8136 180.1 124.791C154.454 160.766 107.459 171.746 75.3375 149.267L66.8812 161.129C81.0923 171.074 97.7695 175.478 114.663 174.863C95.491 189.197 75.346 206.672 57.5135 230.14L-6.58587 185.281L27.4275 128.375ZM-30.4712 186.346L64.8517 253.056C66.2868 254.06 66.5313 256.267 65.3855 257.875C64.2397 259.482 62.0587 259.992 60.6236 258.987L-34.6993 192.277C-36.1344 191.272 -36.3789 189.065 -35.2331 187.458C-34.0873 185.851 -31.9063 185.341 -30.4712 186.346ZM54.3025 290.125L-62.2032 208.589C-65.1238 206.546 -65.6026 202.223 -63.2708 198.952C-60.939 195.681 -56.6675 194.683 -53.747 196.727L62.7588 278.262C65.6794 280.306 66.1582 284.628 63.8264 287.899C61.4946 291.171 57.2231 292.168 54.3025 290.125ZM134.343 27.3588L132.541 41.3445L112.96 40.976L114.762 26.9903L134.343 27.3588ZM49.8895 39.6033L48.7295 53.5849L36.5578 53.9569L37.7178 39.9754L49.8895 39.6033Z" fill="#1070B1"/>
</svg>
