<svg width="212" height="213" viewBox="0 0 212 213" fill="none" xmlns="http://www.w3.org/2000/svg">
<path opacity="0.1" d="M86.1331 296.904C87.1424 295.984 88.0757 294.961 88.882 293.796C94.9065 285.094 92.3357 272.935 83.1513 266.694L80.8161 265.107C82.0407 262.304 83.1967 259.488 84.4112 256.517C91.9057 238.119 101.924 213.564 148.903 143.748C157.47 147.328 167.505 144.841 172.742 137.275C177.524 130.369 176.817 121.334 171.764 114.757L211.854 84.0389L178.326 37.2186L184.064 28.9295L190.727 33.4575L199.468 20.8314L192.805 16.3034L197.175 9.99026L183.85 0.93427L179.48 7.24736L172.817 2.71937L164.077 15.3456L170.739 19.8736L165.001 28.1626L108.844 14.0316L94.3578 62.1511C86.3458 59.8483 77.5827 62.4519 72.8037 69.3552C67.5659 76.9215 68.8379 87.0924 75.2945 93.7223C26.4799 162.291 6.96779 180.394 -7.65907 193.944C-10.0228 196.135 -12.2548 198.22 -14.4522 200.361L-16.7874 198.774C-25.9718 192.532 -38.3452 194.534 -44.3696 203.236C-45.176 204.401 -45.8028 205.632 -46.3057 206.896C-56.8762 201.695 -69.7448 204.511 -76.3221 214.012C-83.5528 224.457 -80.4685 239.044 -69.4453 246.536L57.1438 332.567C68.167 340.059 83.0118 337.657 90.2424 327.212C96.8197 317.711 94.8375 304.802 86.1331 296.904ZM87.275 83.8318C85.4695 82.6047 84.9445 80.1221 86.1289 78.4112C87.3133 76.7004 89.8398 76.2916 91.6453 77.5187L158.271 122.799C160.077 124.026 160.602 126.508 159.417 128.219C158.233 129.93 155.706 130.339 153.901 129.112L87.275 83.8318ZM178.021 89.8046L158.757 104.562L108.641 70.5027L115.599 47.3818L178.021 89.8046ZM122.144 33.2636L163.978 43.7922L188.957 78.6704L122.144 33.2636ZM3.57365 205.421C18.6447 191.449 38.7623 172.783 88.3618 103.137L135.333 135.059C87.619 205.987 77.2887 231.304 69.5599 250.267C68.7596 252.229 68.0071 254.067 67.2411 255.881L-0.880496 209.584C0.555091 208.225 2.01276 206.863 3.57365 205.421ZM-25.528 211.4L74.4107 279.32C76.2163 280.547 76.7412 283.03 75.5569 284.74C74.3725 286.451 71.846 286.86 70.0404 285.633L-29.8983 217.713C-31.7039 216.486 -32.2288 214.003 -31.0445 212.292C-29.8601 210.582 -27.3336 210.173 -25.528 211.4ZM65.8844 319.941L-60.7047 233.909C-64.3791 231.412 -65.4072 226.55 -62.997 223.068C-60.5868 219.587 -55.6385 218.786 -51.9641 221.283L74.625 307.315C78.2994 309.812 79.3275 314.675 76.9173 318.156C74.507 321.638 69.5588 322.438 65.8844 319.941Z" fill="#1070B1"/>
</svg>
