<svg width="36" height="60" viewBox="0 0 36 60" fill="none" xmlns="http://www.w3.org/2000/svg">
<path d="M32.6905 51.7109C32.3159 51.5904 32.0645 51.2165 32.0645 50.823C32.0645 48.9605 30.4944 47.4452 28.5645 47.4452C28.2796 47.4452 28.035 47.243 27.9777 46.964C27.9021 46.5954 27.8216 46.2243 27.7378 45.8394C27.0174 42.5512 26.0672 38.2032 25.8237 24.7027C25.8064 23.7445 26.5295 22.9512 27.2812 22.3568C28.064 21.7376 28.5645 20.7981 28.5645 19.7471C28.5645 19.03 28.3308 18.3666 27.9335 17.8212C27.2709 16.9117 26.6638 15.7413 27.0844 14.6975L30.0357 7.3741C30.3283 6.64806 29.9656 5.82352 29.2327 5.5485L28.8041 5.38762C28.3341 5.21125 27.8092 5.44212 27.6216 5.90773C27.4293 6.3851 26.884 6.61201 26.3914 6.46321C25.5179 6.1994 24.5177 6.01084 23.4969 5.87674C22.7403 5.77736 22.2645 4.9722 22.2645 4.20914C22.2645 1.9737 20.3808 0.155762 18.0645 0.155762C15.7482 0.155762 13.8645 1.9737 13.8645 4.20914C13.8645 4.97208 13.3885 5.77712 12.632 5.87645C11.6112 6.0105 10.611 6.19925 9.73753 6.46315C9.24488 6.61201 8.6996 6.3851 8.50727 5.90773C8.31968 5.44212 7.79483 5.21125 7.32485 5.38762L6.89617 5.5485C6.16329 5.82352 5.80065 6.64806 6.09324 7.3741L9.04453 14.6975C9.46515 15.7413 8.85798 16.9117 8.1954 17.8212C7.79812 18.3666 7.56445 19.03 7.56445 19.7471C7.56445 20.7981 8.06491 21.7376 8.84779 22.3568C9.59942 22.9513 10.3225 23.7445 10.3053 24.7026C10.0624 38.2032 9.11217 42.5512 8.39115 45.8394C8.30681 46.2243 8.22653 46.5954 8.15105 46.9639C8.09388 47.243 7.84934 47.4452 7.56445 47.4452C5.63455 47.4452 4.06445 48.9605 4.06445 50.823C4.06445 51.2165 3.81303 51.5904 3.43844 51.7109C1.77065 52.2472 0.564453 53.764 0.564453 55.5519C0.564453 57.7874 2.44815 59.6053 4.76445 59.6053H31.3645C33.6808 59.6053 35.5645 57.7874 35.5645 55.5519C35.5645 53.764 34.3583 52.2472 32.6905 51.7109ZM11.0645 20.4226C10.6851 20.4226 10.3645 20.1132 10.3645 19.7471C10.3645 19.3809 10.6851 19.0715 11.0645 19.0715H25.0645C25.4439 19.0715 25.7645 19.3809 25.7645 19.7471C25.7645 20.1132 25.4439 20.4226 25.0645 20.4226H11.0645ZM14.0725 16.3693C13.2565 16.3693 12.5223 15.8736 12.2174 15.1167L12.1959 15.0633C11.6663 13.7489 12.6339 12.3159 14.051 12.3159H22.0779C23.495 12.3159 24.4626 13.7489 23.933 15.0633L23.9115 15.1167C23.6066 15.8736 22.8724 16.3693 22.0564 16.3693H14.0725ZM16.6645 4.20914C16.6645 3.46399 17.2924 2.85801 18.0645 2.85801C18.8366 2.85801 19.4645 3.46399 19.4645 4.20914C19.4645 4.95429 18.8366 5.56027 18.0645 5.56027C17.2924 5.56027 16.6645 4.95429 16.6645 4.20914ZM18.0645 8.26252C22.1281 8.26252 24.8712 8.76564 26.0599 9.18279C26.1776 9.22411 26.2329 9.35583 26.1863 9.47155C26.1518 9.5574 26.0685 9.61364 25.976 9.61364H10.1529C10.0604 9.61364 9.97712 9.5574 9.94256 9.47155C9.89598 9.35583 9.95134 9.22411 10.0691 9.18279C11.2577 8.76564 14.0008 8.26252 18.0645 8.26252ZM11.1317 46.3987C11.8681 43.0339 12.8388 38.5915 13.0975 25.1056C13.1185 24.0116 14.009 23.1249 15.1033 23.1249H21.0256C22.1199 23.1249 23.0104 24.0116 23.0314 25.1056C23.2902 38.5915 24.2608 43.0339 24.9973 46.3987C25.1153 46.9384 24.7035 47.4452 24.1511 47.4452H11.9773C11.4252 47.4452 11.0125 46.9378 11.1317 46.3987ZM7.56445 50.1474H28.5645C28.9439 50.1474 29.2645 50.4568 29.2645 50.823C29.2645 51.1891 28.9439 51.4985 28.5645 51.4985H7.56445C7.18505 51.4985 6.86445 51.1891 6.86445 50.823C6.86445 50.4568 7.18505 50.1474 7.56445 50.1474ZM31.3645 56.903H4.76445C3.99235 56.903 3.36445 56.2971 3.36445 55.5519C3.36445 54.8068 3.99235 54.2008 4.76445 54.2008H31.3645C32.1366 54.2008 32.7645 54.8068 32.7645 55.5519C32.7645 56.2971 32.1366 56.903 31.3645 56.903Z" fill="url(#paint0_linear)"/>
<defs>
<linearGradient id="paint0_linear" x1="0.564453" y1="0.155762" x2="52.5469" y2="30.7596" gradientUnits="userSpaceOnUse">
<stop stop-color="#FFC200"/>
<stop offset="1" stop-color="#FF785E"/>
</linearGradient>
</defs>
</svg>
