<svg width="36" height="60" viewBox="0 0 36 60" fill="none" xmlns="http://www.w3.org/2000/svg">
<path d="M32.765 51.6292C32.3914 51.4751 32.1312 51.098 32.1312 50.694C32.1312 49.4592 31.548 48.3826 30.6778 47.786C30.0595 47.3621 29.4154 46.8779 29.1612 46.1727C29.1168 46.0497 29.0719 45.9263 29.0265 45.802C27.8657 42.6264 26.3042 38.3435 26.1161 21.9564C26.1034 20.8494 27.0973 19.9639 27.9323 19.2371C28.6503 18.6121 29.114 17.6301 29.114 16.5276C29.114 15.7912 29.3552 15.0336 29.752 14.4132C30.1094 13.8544 30.3209 13.1694 30.3209 12.4276V5.59431V1.49434C30.3209 0.739558 29.709 0.127686 28.9542 0.127686H25.6829C24.5784 0.127686 23.6829 1.02312 23.6829 2.12769V3.62421C23.6829 3.95748 23.4127 4.22765 23.0795 4.22765C22.7462 4.22765 22.476 3.95748 22.476 3.62421V2.12769C22.476 1.02312 21.5806 0.127686 20.476 0.127686H14.8208C13.7163 0.127686 12.8209 1.02312 12.8209 2.12769V3.62421C12.8209 3.95748 12.5507 4.22765 12.2174 4.22765C11.8841 4.22765 11.614 3.95748 11.614 3.62421V2.12769C11.614 1.02312 10.7185 0.127686 9.61395 0.127686H6.34268C5.5879 0.127686 4.97602 0.739558 4.97602 1.49434V5.59431V12.4276C4.97602 13.1694 5.18749 13.8544 5.5449 14.4132C5.94167 15.0336 6.18292 15.7912 6.18292 16.5276C6.18292 17.6305 6.64686 18.6128 7.36531 19.2379C8.20025 19.9643 9.19344 20.8496 9.18074 21.9562C8.99269 38.344 7.4306 42.6271 6.27042 45.8027C6.22486 45.9273 6.17987 46.0509 6.1355 46.1742C5.88169 46.8791 5.23774 47.3625 4.61961 47.7859C3.74917 48.3821 3.16568 49.459 3.16568 50.694C3.16568 51.098 2.90546 51.4751 2.5319 51.6292C1.14311 52.2021 0.148438 53.7085 0.148438 55.4773C0.148438 57.7384 1.77232 59.5772 3.76913 59.5772H31.5277C33.5246 59.5772 35.1484 57.7384 35.1484 55.4773C35.1484 53.7085 34.1538 52.2021 32.765 51.6292ZM5.57947 50.694C5.57947 50.3236 5.85585 50.0106 6.18292 50.0106H29.114C29.441 50.0106 29.7174 50.3236 29.7174 50.694C29.7174 51.0643 29.441 51.3773 29.114 51.3773H6.18292C5.85585 51.3773 5.57947 51.0643 5.57947 50.694ZM7.38982 3.76617C7.38982 3.26626 7.79508 2.861 8.29499 2.861C8.7949 2.861 9.20016 3.26626 9.20016 3.76617V4.96097C9.20016 6.06553 10.0956 6.96097 11.2002 6.96097H13.2346C14.3392 6.96097 15.2346 6.06553 15.2346 4.96097V4.861C15.2346 3.75643 16.1301 2.861 17.2346 2.861H18.0622C19.1668 2.861 20.0622 3.75643 20.0622 4.861V4.96097C20.0622 6.06553 20.9577 6.96097 22.0622 6.96097H24.0967C25.2013 6.96097 26.0967 6.06553 26.0967 4.96097V3.76617C26.0967 3.26626 26.502 2.861 27.0019 2.861C27.5018 2.861 27.9071 3.26626 27.9071 3.76617V5.59431V12.4276C27.9071 12.798 27.6307 13.1109 27.3036 13.1109H7.99327C7.6662 13.1109 7.38982 12.798 7.38982 12.4276V5.59431V3.76617ZM8.59671 16.5276C8.59671 16.1572 8.87309 15.8442 9.20016 15.8442H26.0967C26.4238 15.8442 26.7002 16.1572 26.7002 16.5276C26.7002 16.8979 26.4238 17.2109 26.0967 17.2109H9.20016C8.87309 17.2109 8.59671 16.8979 8.59671 16.5276ZM11.5953 21.941C11.6079 20.84 12.501 19.9442 13.6022 19.9442H21.6947C22.7958 19.9442 23.689 20.84 23.7016 21.941C23.8951 38.907 25.5603 43.4656 26.7961 46.8475C26.8723 47.0561 26.7155 47.2773 26.4935 47.2773H8.80341C8.58111 47.2773 8.42449 47.0563 8.50076 46.8475C9.73654 43.4656 11.4018 38.907 11.5953 21.941ZM31.5277 56.8439H3.76913C3.10352 56.8439 2.56223 56.231 2.56223 55.4773C2.56223 54.7235 3.10352 54.1106 3.76913 54.1106H31.5277C32.1934 54.1106 32.7346 54.7235 32.7346 55.4773C32.7346 56.231 32.1934 56.8439 31.5277 56.8439Z" fill="url(#paint0_linear)"/>
<defs>
<linearGradient id="paint0_linear" x1="0.148438" y1="0.127686" x2="52.1309" y2="30.7316" gradientUnits="userSpaceOnUse">
<stop stop-color="#FFC200"/>
<stop offset="1" stop-color="#FF785E"/>
</linearGradient>
</defs>
</svg>
